<svg width="241" height="196" viewBox="0 0 241 196" fill="none" xmlns="http://www.w3.org/2000/svg">
<path d="M22.9468 52.8525C19.9157 52.8525 17.2634 52.1184 14.99 50.6502C12.7167 49.1346 10.9406 47.027 9.66182 44.3274C8.43041 41.5804 7.81471 38.3361 7.81471 34.5945C7.81471 30.6635 8.43041 27.3482 9.66182 24.6485C10.8932 21.9489 12.6219 19.9123 14.8479 18.5389C17.1213 17.118 19.7973 16.4076 22.8758 16.4076C26.0017 16.4076 28.7723 17.189 31.1878 18.752C33.6032 20.2676 35.4977 22.3988 36.8712 25.1458C38.2447 27.8928 38.9314 31.0424 38.9314 34.5945C38.9314 38.1467 38.2447 41.3199 36.8712 44.1143C35.5451 46.8612 33.6743 49.0162 31.2588 50.5791C28.8907 52.0947 26.1201 52.8525 22.9468 52.8525ZM3.69422 52V3.61986H14.0665V26.9219H13.4271V43.1197H14.0665L11.4379 52H3.69422ZM20.9576 43.1197C23.0889 43.1197 24.8413 42.3382 26.2148 40.7752C27.6356 39.1649 28.3461 37.1047 28.3461 34.5945C28.3461 32.1317 27.6356 30.1188 26.2148 28.5559C24.8413 26.9456 23.0889 26.1404 20.9576 26.1404C18.8737 26.1404 17.1213 26.9456 15.7005 28.5559C14.2796 30.1188 13.5692 32.1317 13.5692 34.5945C13.5692 37.1047 14.2796 39.1649 15.7005 40.7752C17.1213 42.3382 18.8737 43.1197 20.9576 43.1197ZM52.6749 52.8525C50.1173 52.8525 48.0334 52.4736 46.4231 51.7158C44.8602 50.958 43.6288 49.9161 42.7289 48.5899C41.8764 47.2165 41.2844 45.6772 40.9528 43.9722C40.6687 42.2198 40.5266 40.3727 40.5266 38.4308V17.2601H50.8988V37.8625C50.8988 39.8043 51.3014 41.1068 52.1065 41.7698C52.9117 42.3855 53.9063 42.6934 55.0903 42.6934C56.1323 42.6934 57.1506 42.5276 58.1452 42.1961C59.1398 41.8172 60.1107 41.2962 61.0579 40.6332C62.0052 39.9227 62.8577 39.0702 63.6155 38.0756L65.3915 43.3328H62.4788V17.2601H72.9221V52H65.1784L63.0471 45.1089L66.5993 45.393C65.4626 46.7192 64.1365 47.9742 62.6209 49.1583C61.1527 50.295 59.5897 51.1948 57.9321 51.8579C56.2744 52.521 54.522 52.8525 52.6749 52.8525ZM87.9626 52H77.5904V17.2601H87.9626V52ZM76.6668 6.31949C76.6668 4.47238 77.2115 2.98048 78.3008 1.8438C79.4375 0.707113 80.9294 0.138771 82.7765 0.138771C84.6236 0.138771 86.0918 0.707113 87.1811 1.8438C88.3178 2.98048 88.8862 4.47238 88.8862 6.31949C88.8862 8.11924 88.3178 9.58746 87.1811 10.7241C86.0918 11.8135 84.6236 12.3581 82.7765 12.3581C80.9294 12.3581 79.4375 11.8135 78.3008 10.7241C77.2115 9.58746 76.6668 8.11924 76.6668 6.31949ZM102.378 52.3552C100.625 52.3552 99.0149 52 97.5467 51.2896C96.0785 50.5791 94.8945 49.4898 93.9946 48.0216C93.0947 46.506 92.6448 44.4931 92.6448 41.983V3.61986H102.946V38.2887C102.946 40.0411 103.254 41.1778 103.87 41.6988C104.533 42.1724 105.361 42.4092 106.356 42.4092V52C105.882 52.0947 105.243 52.1658 104.438 52.2131C103.68 52.3079 102.993 52.3552 102.378 52.3552ZM122.876 52.8525C119.75 52.8525 116.979 52.0947 114.564 50.5791C112.148 49.0162 110.254 46.8612 108.88 44.1143C107.554 41.3199 106.891 38.1467 106.891 34.5945C106.891 31.0424 107.578 27.8928 108.951 25.1458C110.325 22.3988 112.219 20.2676 114.635 18.752C117.05 17.189 119.821 16.4076 122.947 16.4076C126.025 16.4076 128.678 17.118 130.904 18.5389C133.177 19.9123 134.929 21.9489 136.161 24.6485C137.439 27.3482 138.079 30.6635 138.079 34.5945C138.079 38.3361 137.439 41.5804 136.161 44.3274C134.882 47.027 133.106 49.1346 130.832 50.6502C128.559 52.1184 125.907 52.8525 122.876 52.8525ZM124.865 43.1197C126.996 43.1197 128.749 42.3382 130.122 40.7752C131.543 39.1649 132.253 37.1047 132.253 34.5945C132.253 32.1317 131.543 30.1188 130.122 28.5559C128.749 26.9456 126.996 26.1404 124.865 26.1404C122.734 26.1404 120.958 26.9456 119.537 28.5559C118.163 30.1188 117.476 32.1317 117.476 34.5945C117.476 37.1047 118.163 39.1649 119.537 40.7752C120.958 42.3382 122.734 43.1197 124.865 43.1197ZM134.385 52L131.756 43.1197H132.395V26.9219H131.756V3.61986H142.128V52H134.385ZM36.3739 88.2601L23.8704 123H13.8533L0.710428 88.2601H11.3668L20.2472 114.617H17.4055L25.9306 88.2601H36.3739ZM46.8899 123.924C44.3797 123.924 42.1537 123.45 40.2119 122.503C38.3174 121.508 36.8492 120.135 35.8072 118.382C34.7653 116.63 34.2443 114.593 34.2443 112.273C34.2443 109.81 34.8126 107.726 35.9493 106.021C37.086 104.268 38.6016 102.919 40.496 101.971C42.4379 101.024 44.5928 100.55 46.9609 100.55C50.4184 100.55 53.2127 101.332 55.344 102.895C57.4753 104.458 58.8961 106.708 59.6066 109.644L55.1309 108.862V100.764C55.1309 99.4848 54.6809 98.3718 53.781 97.4246C52.8812 96.4774 51.4366 96.0037 49.4474 96.0037C48.1687 96.0037 46.7004 96.1695 45.0428 96.501C43.3851 96.7852 41.6801 97.3536 39.9277 98.2061L36.8729 90.8176C38.9568 89.7757 41.1828 88.9468 43.5509 88.3311C45.9663 87.7154 48.4292 87.4076 50.9393 87.4076C54.1599 87.4076 56.8596 87.9759 59.0382 89.1126C61.2169 90.2493 62.8272 91.8596 63.8691 93.9435C64.9584 96.0274 65.5031 98.4429 65.5031 101.19V123H57.049L54.9888 116.251L59.6066 114.83C58.8488 117.672 57.4042 119.898 55.2729 121.508C53.1417 123.118 50.3473 123.924 46.8899 123.924ZM50.0868 116.535C51.6498 116.535 52.8812 116.133 53.781 115.327C54.7283 114.522 55.2019 113.504 55.2019 112.273C55.2019 110.946 54.7283 109.904 53.781 109.147C52.8812 108.389 51.6498 108.01 50.0868 108.01C48.5239 108.01 47.2925 108.389 46.3926 109.147C45.4927 109.904 45.0428 110.946 45.0428 112.273C45.0428 113.504 45.4927 114.522 46.3926 115.327C47.2925 116.133 48.5239 116.535 50.0868 116.535ZM78.8558 123.355C77.1034 123.355 75.4931 123 74.0249 122.29C72.5567 121.579 71.3726 120.49 70.4728 119.022C69.5729 117.506 69.123 115.493 69.123 112.983V74.6199H79.4242V109.289C79.4242 111.041 79.732 112.178 80.3477 112.699C81.0108 113.172 81.8396 113.409 82.8342 113.409V123C82.3606 123.095 81.7212 123.166 80.9161 123.213C80.1583 123.308 79.4715 123.355 78.8558 123.355ZM96.874 123.853C94.3165 123.853 92.2326 123.474 90.6223 122.716C89.0593 121.958 87.8279 120.916 86.9281 119.59C86.0755 118.216 85.4835 116.677 85.152 114.972C84.8678 113.22 84.7257 111.373 84.7257 109.431V88.2601H95.098V108.862C95.098 110.804 95.5006 112.107 96.3057 112.77C97.1109 113.386 98.1055 113.693 99.2895 113.693C100.331 113.693 101.35 113.528 102.344 113.196C103.339 112.817 104.31 112.296 105.257 111.633C106.204 110.923 107.057 110.07 107.815 109.076L109.591 114.333H106.678V88.2601H117.121V123H109.378L107.246 116.109L110.798 116.393C109.662 117.719 108.336 118.974 106.82 120.158C105.352 121.295 103.789 122.195 102.131 122.858C100.474 123.521 98.7212 123.853 96.874 123.853ZM131.955 123.924C129.445 123.924 127.219 123.45 125.277 122.503C123.383 121.508 121.915 120.135 120.873 118.382C119.831 116.63 119.31 114.593 119.31 112.273C119.31 109.81 119.878 107.726 121.015 106.021C122.151 104.268 123.667 102.919 125.561 101.971C127.503 101.024 129.658 100.55 132.026 100.55C135.484 100.55 138.278 101.332 140.409 102.895C142.541 104.458 143.962 106.708 144.672 109.644L140.196 108.862V100.764C140.196 99.4848 139.746 98.3718 138.846 97.4246C137.947 96.4774 136.502 96.0037 134.513 96.0037C133.234 96.0037 131.766 96.1695 130.108 96.501C128.451 96.7852 126.745 97.3536 124.993 98.2061L121.938 90.8176C124.022 89.7757 126.248 88.9468 128.616 88.3311C131.032 87.7154 133.495 87.4076 136.005 87.4076C139.225 87.4076 141.925 87.9759 144.104 89.1126C146.282 90.2493 147.893 91.8596 148.935 93.9435C150.024 96.0274 150.569 98.4429 150.569 101.19V123H142.114L140.054 116.251L144.672 114.83C143.914 117.672 142.47 119.898 140.338 121.508C138.207 123.118 135.413 123.924 131.955 123.924ZM135.152 116.535C136.715 116.535 137.947 116.133 138.846 115.327C139.794 114.522 140.267 113.504 140.267 112.273C140.267 110.946 139.794 109.904 138.846 109.147C137.947 108.389 136.715 108.01 135.152 108.01C133.589 108.01 132.358 108.389 131.458 109.147C130.558 109.904 130.108 110.946 130.108 112.273C130.108 113.504 130.558 114.522 131.458 115.327C132.358 116.133 133.589 116.535 135.152 116.535ZM173.857 123.853C170.826 123.853 168.174 123.118 165.9 121.65C163.627 120.135 161.851 118.027 160.572 115.327C159.341 112.58 158.725 109.336 158.725 105.595C158.725 101.663 159.341 98.3482 160.572 95.6485C161.804 92.9489 163.532 90.9123 165.758 89.5389C168.032 88.118 170.708 87.4076 173.786 87.4076C176.912 87.4076 179.683 88.189 182.098 89.752C184.514 91.2676 186.408 93.3988 187.782 96.1458C189.155 98.8928 189.842 102.042 189.842 105.595C189.842 109.147 189.155 112.32 187.782 115.114C186.455 117.861 184.585 120.016 182.169 121.579C179.801 123.095 177.03 123.853 173.857 123.853ZM154.605 123V74.6199H164.977V97.9219H164.337V114.12H164.977L162.348 123H154.605ZM171.868 114.12C173.999 114.12 175.752 113.338 177.125 111.775C178.546 110.165 179.256 108.105 179.256 105.595C179.256 103.132 178.546 101.119 177.125 99.5559C175.752 97.9456 173.999 97.1404 171.868 97.1404C169.784 97.1404 168.032 97.9456 166.611 99.5559C165.19 101.119 164.48 103.132 164.48 105.595C164.48 108.105 165.19 110.165 166.611 111.775C168.032 113.338 169.784 114.12 171.868 114.12ZM201.527 123.355C199.774 123.355 198.164 123 196.696 122.29C195.228 121.579 194.044 120.49 193.144 119.022C192.244 117.506 191.794 115.493 191.794 112.983V74.6199H202.095V109.289C202.095 111.041 202.403 112.178 203.019 112.699C203.682 113.172 204.511 113.409 205.505 113.409V123C205.032 123.095 204.392 123.166 203.587 123.213C202.829 123.308 202.142 123.355 201.527 123.355ZM223.446 123.639C219.988 123.639 216.933 122.905 214.281 121.437C211.676 119.969 209.64 117.885 208.171 115.185C206.751 112.486 206.04 109.312 206.04 105.666C206.04 102.066 206.751 98.8928 208.171 96.1458C209.64 93.3988 211.676 91.2676 214.281 89.752C216.933 88.189 219.988 87.4076 223.446 87.4076C226.998 87.4076 230.076 88.2127 232.681 89.823C235.286 91.4333 237.299 93.612 238.72 96.359C240.141 99.0586 240.851 102.113 240.851 105.523C240.851 106.139 240.827 106.731 240.78 107.3C240.733 107.868 240.685 108.318 240.638 108.649H214.139V101.261H232.681L231.473 104.316C231.473 101.711 230.81 99.5796 229.484 97.9219C228.206 96.2642 226.216 95.4354 223.517 95.4354C221.101 95.4354 219.159 96.1695 217.691 97.6377C216.27 99.1059 215.56 101.048 215.56 103.463V107.371C215.56 109.975 216.294 112.012 217.762 113.48C219.278 114.901 221.362 115.612 224.014 115.612C226.24 115.612 227.992 115.162 229.271 114.262C230.597 113.362 231.71 112.249 232.61 110.923L239.643 114.83C238.128 117.624 235.997 119.803 233.25 121.366C230.503 122.882 227.235 123.639 223.446 123.639ZM16.4109 195.066C13.6165 195.066 10.988 194.521 8.52513 193.432C6.10968 192.342 3.90735 190.472 1.91816 187.819L7.81471 182.136C9.42501 183.794 10.9643 184.978 12.4325 185.688C13.9007 186.398 15.511 186.754 17.2634 186.754C18.3054 186.754 19.1342 186.541 19.7499 186.114C20.413 185.641 20.7445 185.072 20.7445 184.409C20.7445 183.841 20.555 183.367 20.1761 182.988C19.7973 182.609 19.0868 182.231 18.0449 181.852C17.0029 181.473 15.4873 181.023 13.4981 180.502C9.85127 179.602 7.12796 178.3 5.32821 176.595C3.57582 174.842 2.69963 172.521 2.69963 169.632C2.69963 167.548 3.24429 165.654 4.33361 163.949C5.42293 162.197 6.98587 160.799 9.02243 159.757C11.059 158.715 13.4744 158.194 16.2688 158.194C19.5841 158.194 22.4022 158.834 24.7229 160.113C27.0436 161.344 28.9618 162.86 30.4774 164.659L24.0835 170.13C23.0415 169.182 21.7865 168.377 20.3182 167.714C18.85 167.051 17.1924 166.72 15.3452 166.72C14.3506 166.72 13.4981 166.909 12.7877 167.288C12.0773 167.667 11.7221 168.235 11.7221 168.993C11.7221 169.703 12.1483 170.295 13.0008 170.769C13.8533 171.243 15.5584 171.787 18.1159 172.403C22.4258 173.445 25.5044 174.842 27.3515 176.595C29.2459 178.347 30.1932 180.691 30.1932 183.628C30.1932 185.901 29.6012 187.914 28.4171 189.666C27.2331 191.371 25.5991 192.698 23.5152 193.645C21.4312 194.592 19.0631 195.066 16.4109 195.066ZM40.0803 176.523V175.174L54.2889 159.26H65.9399L50.1684 177.092L49.8842 173.682L66.2951 194H54.2179L40.0803 176.523ZM32.905 145.62H43.2062V194H32.905V145.62ZM76.9316 194H66.5593V159.26H76.9316V194ZM65.6358 148.319C65.6358 146.472 66.1804 144.98 67.2697 143.844C68.4064 142.707 69.8983 142.139 71.7454 142.139C73.5925 142.139 75.0608 142.707 76.1501 143.844C77.2868 144.98 77.8551 146.472 77.8551 148.319C77.8551 150.119 77.2868 151.587 76.1501 152.724C75.0608 153.813 73.5925 154.358 71.7454 154.358C69.8983 154.358 68.4064 153.813 67.2697 152.724C66.1804 151.587 65.6358 150.119 65.6358 148.319ZM91.3466 194.355C89.5942 194.355 87.9839 194 86.5157 193.29C85.0475 192.579 83.8634 191.49 82.9635 190.022C82.0637 188.506 81.6137 186.493 81.6137 183.983V145.62H91.9149V180.289C91.9149 182.041 92.2228 183.178 92.8385 183.699C93.5015 184.172 94.3304 184.409 95.325 184.409V194C94.8514 194.095 94.212 194.166 93.4068 194.213C92.649 194.308 91.9623 194.355 91.3466 194.355ZM107.653 194.355C105.901 194.355 104.29 194 102.822 193.29C101.354 192.579 100.17 191.49 99.2701 190.022C98.3702 188.506 97.9203 186.493 97.9203 183.983V145.62H108.221V180.289C108.221 182.041 108.529 183.178 109.145 183.699C109.808 184.172 110.637 184.409 111.632 184.409V194C111.158 194.095 110.519 194.166 109.713 194.213C108.956 194.308 108.269 194.355 107.653 194.355ZM126.943 195.066C124.149 195.066 121.521 194.521 119.058 193.432C116.642 192.342 114.44 190.472 112.451 187.819L118.347 182.136C119.958 183.794 121.497 184.978 122.965 185.688C124.433 186.398 126.044 186.754 127.796 186.754C128.838 186.754 129.667 186.541 130.282 186.114C130.946 185.641 131.277 185.072 131.277 184.409C131.277 183.841 131.088 183.367 130.709 182.988C130.33 182.609 129.619 182.231 128.577 181.852C127.535 181.473 126.02 181.023 124.031 180.502C120.384 179.602 117.661 178.3 115.861 176.595C114.108 174.842 113.232 172.521 113.232 169.632C113.232 167.548 113.777 165.654 114.866 163.949C115.956 162.197 117.518 160.799 119.555 159.757C121.592 158.715 124.007 158.194 126.801 158.194C130.117 158.194 132.935 158.834 135.255 160.113C137.576 161.344 139.494 162.86 141.01 164.659L134.616 170.13C133.574 169.182 132.319 168.377 130.851 167.714C129.383 167.051 127.725 166.72 125.878 166.72C124.883 166.72 124.031 166.909 123.32 167.288C122.61 167.667 122.255 168.235 122.255 168.993C122.255 169.703 122.681 170.295 123.533 170.769C124.386 171.243 126.091 171.787 128.648 172.403C132.958 173.445 136.037 174.842 137.884 176.595C139.779 178.347 140.726 180.691 140.726 183.628C140.726 185.901 140.134 187.914 138.95 189.666C137.766 191.371 136.132 192.698 134.048 193.645C131.964 194.592 129.596 195.066 126.943 195.066Z" fill="#FFF0B3"/>
</svg>
